<svg width="46" height="46" viewBox="0 0 46 46" fill="none" xmlns="http://www.w3.org/2000/svg">
<path d="M18.6875 16.5312H17.25V29.4688H18.6875V16.5312Z" fill="black"/>
<path d="M28.0312 16.5312H26.5938V29.4688H28.0312V16.5312Z" fill="black"/>
<path d="M23 0C16.8568 0 11.081 2.39344 6.73756 6.73828C2.39272 11.081 0 16.8568 0 23C0 29.1432 2.39272 34.919 6.73756 39.2624C11.081 43.6073 16.8568 46 23 46C29.1432 46 34.919 43.6066 39.2632 39.2617C43.6073 34.919 46 29.1432 46 23C46 16.8568 43.6073 11.081 39.2624 6.73756C34.919 2.39272 29.1432 0 23 0ZM38.2468 38.2461C34.1737 42.3193 28.7593 44.5625 23 44.5625C17.2407 44.5625 11.8263 42.3193 7.75388 38.2454C3.68072 34.1737 1.4375 28.7593 1.4375 23C1.4375 17.2407 3.68072 11.8263 7.75388 7.75388C11.8263 3.68072 17.2407 1.4375 23 1.4375C28.7593 1.4375 34.1737 3.68144 38.2468 7.75459C42.32 11.8263 44.5625 17.2407 44.5625 23C44.5625 28.7593 42.32 34.1737 38.2468 38.2461Z" fill="black"/>
</svg>
