<svg width="39" height="31" viewBox="0 0 39 31" fill="none" xmlns="http://www.w3.org/2000/svg">
<path d="M18.2714 16.2089H0.925261C0.414131 16.2089 0 15.7947 0 15.2837C0 14.7725 0.414131 14.3584 0.925261 14.3584H18.2714C18.7825 14.3584 19.1966 14.7725 19.1966 15.2837C19.1966 15.7947 18.7825 16.2089 18.2714 16.2089Z" fill="black"/>
<path d="M37.2505 16.2088H28.0479C27.5368 16.2088 27.1226 15.7946 27.1226 15.2835C27.1226 14.7724 27.5368 14.3583 28.0479 14.3583H37.2505C37.7616 14.3583 38.1758 14.7724 38.1758 15.2835C38.1758 15.7946 37.7616 16.2088 37.2505 16.2088Z" fill="black"/>
<path d="M13.383 27.926H0.925261C0.414131 27.926 0 27.5118 0 27.0008C0 26.4898 0.414131 26.0755 0.925261 26.0755H13.383C13.8941 26.0755 14.3083 26.4898 14.3083 27.0008C14.3083 27.5118 13.8941 27.926 13.383 27.926Z" fill="black"/>
<path d="M37.2505 27.926H23.1591C22.648 27.926 22.2338 27.5118 22.2338 27.0008C22.2338 26.4898 22.648 26.0755 23.1591 26.0755H37.2505C37.7615 26.0755 38.1757 26.4898 38.1757 27.0008C38.1757 27.5118 37.7615 27.926 37.2505 27.926Z" fill="black"/>
<path d="M8.06979 4.73669H0.925261C0.414131 4.73669 0 4.3225 0 3.81143C0 3.30036 0.414131 2.88617 0.925261 2.88617H8.06979C8.58086 2.88617 8.99505 3.3003 8.99505 3.81143C8.99505 4.32256 8.58092 4.73669 8.06979 4.73669Z" fill="black"/>
<path d="M37.2504 4.73669H17.8465C17.3354 4.73669 16.9212 4.32256 16.9212 3.81143C16.9212 3.3003 17.3354 2.88617 17.8465 2.88617H37.2508C37.7619 2.88617 38.176 3.3003 38.176 3.81143C38.1757 4.3225 37.7615 4.73669 37.2504 4.73669Z" fill="black"/>
<path d="M10.9559 7.62197C8.85402 7.62197 7.14447 5.91243 7.14447 3.81064C7.14447 1.70955 8.85402 0 10.9559 0C13.057 0 14.7664 1.70955 14.7664 3.81064C14.7661 5.91249 13.0566 7.62197 10.9559 7.62197ZM10.9559 1.85058C9.87478 1.85058 8.99506 2.72994 8.99506 3.81064C8.99506 4.89173 9.87478 5.77145 10.9559 5.77145C12.0366 5.77145 12.9159 4.89166 12.9159 3.81064C12.9156 2.73 12.0362 1.85058 10.9559 1.85058Z" fill="black"/>
<path d="M16.0755 30.8121C13.9736 30.8121 12.2641 29.1026 12.2641 27.0007C12.2641 24.8992 13.9736 23.1896 16.0755 23.1896C18.1769 23.1896 19.8864 24.8992 19.8864 27.0007C19.8861 29.1026 18.1766 30.8121 16.0755 30.8121ZM16.0755 25.0403C14.9944 25.0403 14.1146 25.9198 14.1146 27.0008C14.1146 28.0819 14.9944 28.9617 16.0755 28.9617C17.1565 28.9617 18.0359 28.0819 18.0359 27.0008C18.0359 25.9198 17.1562 25.0403 16.0755 25.0403Z" fill="black"/>
<path d="M21.1571 19.0938C19.0556 19.0938 17.3461 17.3843 17.3461 15.2828C17.3461 13.1817 19.0556 11.4722 21.1571 11.4722C23.2585 11.4722 24.968 13.1817 24.968 15.2828C24.968 17.3843 23.2585 19.0938 21.1571 19.0938ZM21.1571 13.3228C20.076 13.3228 19.1966 14.2021 19.1966 15.2828C19.1966 16.3639 20.076 17.2432 21.1571 17.2432C22.2382 17.2432 23.1175 16.3639 23.1175 15.2828C23.1175 14.2021 22.2382 13.3228 21.1571 13.3228Z" fill="black"/>
</svg>
