<svg width="33" height="33" viewBox="0 0 33 33" fill="none" xmlns="http://www.w3.org/2000/svg">
<path d="M2.9899 1.94118H9.46324C9.999 1.94118 10.4338 1.50635 10.4338 0.970588C10.4338 0.434824 9.999 0 9.46324 0H1.21324C0.677471 0 0 0.619235 0 1.15549V9.40548C0 9.94125 0.434824 10.3761 0.970588 10.3761C1.50635 10.3761 1.94118 9.94125 1.94118 9.40548V4.06482L9.72626 11.7281C9.91601 11.9179 10.2247 12.0125 10.4731 12.0125C10.7216 12.0125 11.0002 11.9179 11.1899 11.7281C11.5689 11.3491 11.584 10.6425 11.205 10.263L2.9899 1.94118Z" fill="black"/>
<path d="M32.2721 0H24.0221C23.4863 0 23.0515 0.434824 23.0515 0.970588C23.0515 1.50635 23.4863 1.94118 24.0221 1.94118H30.1392L21.9096 10.263C21.5306 10.642 21.5306 11.3025 21.9096 11.6815C22.0989 11.8713 22.3474 11.9887 22.5958 11.9887C22.8443 11.9887 22.9715 11.9057 23.1607 11.716L31.0584 3.70862V9.405C31.0584 9.94076 31.4932 10.3756 32.029 10.3756C32.5647 10.3756 32.9996 9.94076 32.9996 9.405V1.155C33.0001 0.619235 32.8079 0 32.2721 0Z" fill="black"/>
<path d="M9.72626 21.5771L1.94118 29.2409V23.9643C1.94118 23.4285 1.50635 22.9937 0.970588 22.9937C0.434824 22.9937 0 23.4285 0 23.9643V32.2143C0 32.7501 0.677471 33 1.21324 33H9.46324C9.999 33 10.4338 32.5652 10.4338 32.0294C10.4338 31.4936 9.999 31.0588 9.46324 31.0588H2.92584L11.22 22.8574C11.599 22.4783 11.5384 21.9105 11.1593 21.5315C10.7808 21.152 10.1048 21.1981 9.72626 21.5771Z" fill="black"/>
<path d="M32.0294 22.9937C31.4936 22.9937 31.0588 23.4286 31.0588 23.9643V29.5967L23.1611 21.5772C22.7826 21.1982 22.2279 21.1982 21.8494 21.5772C21.4704 21.9562 21.5004 22.4779 21.8795 22.8574L30.2032 31.0588H24.022C23.4863 31.0588 23.0515 31.4937 23.0515 32.0294C23.0515 32.5652 23.4863 33 24.022 33H32.272C32.8078 33 33 32.7501 33 32.2143V23.9643C33 23.4281 32.5652 22.9937 32.0294 22.9937Z" fill="black"/>
</svg>
